<svg xmlns="http://www.w3.org/2000/svg" viewBox="0 0 600 400" width="600" height="400">
<defs>
<linearGradient id="bg" x1="0%" y1="0%" x2="100%" y2="100%"><stop offset="0%" stop-color="#0f1525"/><stop offset="100%" stop-color="#0a0e1a"/></linearGradient>
<linearGradient id="rack" x1="0%" y1="0%" x2="100%" y2="0%"><stop offset="0%" stop-color="#1a2236"/><stop offset="50%" stop-color="#243050"/><stop offset="100%" stop-color="#141a2e"/></linearGradient>
<filter id="glow"><feGaussianBlur stdDeviation="1.5"/></filter>
<filter id="bigGlow"><feGaussianBlur stdDeviation="15"/></filter>
</defs>
<rect width="600" height="400" fill="url(#bg)"/>
<!-- Ambient blue glow -->
<ellipse cx="300" cy="200" rx="260" ry="180" fill="#0066ff" opacity="0.06" filter="url(#bigGlow)"/>

<!-- Floor reflection -->
<ellipse cx="300" cy="370" rx="220" ry="20" fill="#0088ff" opacity="0.12" filter="url(#bigGlow)"/>

<!-- Main server rack (center) -->
<g>
  <!-- Top -->
  <rect x="190" y="42" width="220" height="18" rx="2" fill="#2a3450" stroke="#3a4868" stroke-width="0.5"/>
  
  <!-- Main frame -->
  <rect x="195" y="58" width="210" height="295" rx="3" fill="url(#rack)" stroke="#3a4868" stroke-width="1"/>
  
  <!-- Glass door effect — semi-transparent inner -->
  <rect x="205" y="68" width="190" height="275" rx="2" fill="#080c1a" stroke="#1a2236" stroke-width="0.5"/>
  
  <!-- Rack mounting rails (vertical) -->
  <rect x="215" y="75" width="2" height="260" fill="#4a5878" opacity="0.4"/>
  <rect x="383" y="75" width="2" height="260" fill="#4a5878" opacity="0.4"/>
  
  <!-- Server units 1U - patch panel -->
  <rect x="220" y="78" width="160" height="12" rx="1" fill="#0f1525" stroke="#2a3450" stroke-width="0.5"/>
  <g fill="#0088ff" opacity="0.9">
    <rect x="226" y="82" width="2" height="4"/><rect x="232" y="82" width="2" height="4"/>
    <rect x="238" y="82" width="2" height="4"/><rect x="244" y="82" width="2" height="4"/>
    <rect x="250" y="82" width="2" height="4"/><rect x="256" y="82" width="2" height="4"/>
    <rect x="262" y="82" width="2" height="4"/><rect x="268" y="82" width="2" height="4"/>
    <rect x="274" y="82" width="2" height="4"/><rect x="280" y="82" width="2" height="4"/>
    <rect x="286" y="82" width="2" height="4"/><rect x="292" y="82" width="2" height="4"/>
    <rect x="298" y="82" width="2" height="4"/><rect x="304" y="82" width="2" height="4"/>
    <rect x="310" y="82" width="2" height="4"/><rect x="316" y="82" width="2" height="4"/>
    <rect x="322" y="82" width="2" height="4"/><rect x="328" y="82" width="2" height="4"/>
    <rect x="334" y="82" width="2" height="4"/><rect x="340" y="82" width="2" height="4"/>
    <rect x="346" y="82" width="2" height="4"/><rect x="352" y="82" width="2" height="4"/>
    <rect x="358" y="82" width="2" height="4"/><rect x="364" y="82" width="2" height="4"/>
    <rect x="370" y="82" width="2" height="4"/><rect x="376" y="82" width="2" height="4"/>
  </g>
  
  <!-- 1U server blade -->
  <rect x="220" y="92" width="160" height="10" rx="1" fill="#12182a" stroke="#2a3450" stroke-width="0.3"/>
  <circle cx="228" cy="97" r="1.5" fill="#00ff88" filter="url(#glow)"/>
  <circle cx="234" cy="97" r="1.5" fill="#00ff88" filter="url(#glow)"/>
  <rect x="340" y="95" width="30" height="3" rx="0.5" fill="#1a2236"/>
  
  <!-- 2U server -->
  <rect x="220" y="104" width="160" height="22" rx="1" fill="#0c1122" stroke="#2a3450" stroke-width="0.3"/>
  <!-- LED bar -->
  <rect x="226" y="110" width="60" height="2" fill="#00aaff" filter="url(#glow)"/>
  <rect x="226" y="115" width="40" height="1" fill="#0066ff" filter="url(#glow)"/>
  <!-- Drives -->
  <g fill="#1a2236" stroke="#2a3450" stroke-width="0.3">
    <rect x="300" y="108" width="12" height="14" rx="0.5"/>
    <rect x="315" y="108" width="12" height="14" rx="0.5"/>
    <rect x="330" y="108" width="12" height="14" rx="0.5"/>
    <rect x="345" y="108" width="12" height="14" rx="0.5"/>
    <rect x="360" y="108" width="12" height="14" rx="0.5"/>
  </g>
  <circle cx="306" cy="115" r="0.8" fill="#00ff88"/>
  <circle cx="321" cy="115" r="0.8" fill="#00ff88"/>
  <circle cx="336" cy="115" r="0.8" fill="#00ff88"/>
  <circle cx="351" cy="115" r="0.8" fill="#00ff88"/>
  <circle cx="366" cy="115" r="0.8" fill="#ffaa00"/>
  
  <!-- 1U separator -->
  <rect x="220" y="128" width="160" height="8" rx="0.5" fill="#080c18" stroke="#1a2236" stroke-width="0.3"/>
  
  <!-- 4U storage array -->
  <rect x="220" y="138" width="160" height="45" rx="1" fill="#0c1122" stroke="#2a3450" stroke-width="0.3"/>
  <rect x="226" y="144" width="148" height="2" fill="#00ccff" filter="url(#glow)"/>
  <!-- Disk bays grid -->
  <g fill="#151c30" stroke="#2a3450" stroke-width="0.3">
    <rect x="228" y="150" width="20" height="14" rx="0.5"/>
    <rect x="252" y="150" width="20" height="14" rx="0.5"/>
    <rect x="276" y="150" width="20" height="14" rx="0.5"/>
    <rect x="300" y="150" width="20" height="14" rx="0.5"/>
    <rect x="324" y="150" width="20" height="14" rx="0.5"/>
    <rect x="348" y="150" width="20" height="14" rx="0.5"/>
    <rect x="228" y="166" width="20" height="14" rx="0.5"/>
    <rect x="252" y="166" width="20" height="14" rx="0.5"/>
    <rect x="276" y="166" width="20" height="14" rx="0.5"/>
    <rect x="300" y="166" width="20" height="14" rx="0.5"/>
    <rect x="324" y="166" width="20" height="14" rx="0.5"/>
    <rect x="348" y="166" width="20" height="14" rx="0.5"/>
  </g>
  <!-- LEDs on disks -->
  <circle cx="234" cy="157" r="0.8" fill="#00ff88"/><circle cx="258" cy="157" r="0.8" fill="#00ff88"/>
  <circle cx="282" cy="157" r="0.8" fill="#00ff88"/><circle cx="306" cy="157" r="0.8" fill="#00ff88"/>
  <circle cx="330" cy="157" r="0.8" fill="#00ff88"/><circle cx="354" cy="157" r="0.8" fill="#00ff88"/>
  <circle cx="234" cy="173" r="0.8" fill="#00ff88"/><circle cx="258" cy="173" r="0.8" fill="#00ff88"/>
  <circle cx="282" cy="173" r="0.8" fill="#ffaa00"/><circle cx="306" cy="173" r="0.8" fill="#00ff88"/>
  <circle cx="330" cy="173" r="0.8" fill="#00ff88"/><circle cx="354" cy="173" r="0.8" fill="#00ff88"/>
  
  <!-- Network switch 1U -->
  <rect x="220" y="185" width="160" height="10" rx="1" fill="#0f1525" stroke="#2a3450" stroke-width="0.3"/>
  <g fill="#00aaff">
    <rect x="226" y="189" width="3" height="3"/><rect x="232" y="189" width="3" height="3"/>
    <rect x="238" y="189" width="3" height="3"/><rect x="244" y="189" width="3" height="3"/>
    <rect x="250" y="189" width="3" height="3"/><rect x="256" y="189" width="3" height="3"/>
    <rect x="262" y="189" width="3" height="3"/><rect x="268" y="189" width="3" height="3"/>
    <rect x="274" y="189" width="3" height="3"/><rect x="280" y="189" width="3" height="3"/>
    <rect x="286" y="189" width="3" height="3"/><rect x="292" y="189" width="3" height="3"/>
  </g>
  
  <!-- 2U server -->
  <rect x="220" y="197" width="160" height="22" rx="1" fill="#0c1122" stroke="#2a3450" stroke-width="0.3"/>
  <rect x="226" y="203" width="50" height="2" fill="#00aaff" filter="url(#glow)"/>
  <g fill="#1a2236" stroke="#2a3450" stroke-width="0.3">
    <rect x="300" y="201" width="12" height="14" rx="0.5"/>
    <rect x="315" y="201" width="12" height="14" rx="0.5"/>
    <rect x="330" y="201" width="12" height="14" rx="0.5"/>
    <rect x="345" y="201" width="12" height="14" rx="0.5"/>
    <rect x="360" y="201" width="12" height="14" rx="0.5"/>
  </g>
  <circle cx="306" cy="208" r="0.8" fill="#00ff88"/><circle cx="321" cy="208" r="0.8" fill="#00ff88"/>
  <circle cx="336" cy="208" r="0.8" fill="#00ff88"/><circle cx="351" cy="208" r="0.8" fill="#00ff88"/>
  <circle cx="366" cy="208" r="0.8" fill="#00ff88"/>
  
  <!-- Cable management 1U -->
  <rect x="220" y="221" width="160" height="8" rx="0.5" fill="#080c18" stroke="#1a2236" stroke-width="0.3"/>
  
  <!-- KVM/monitor 1U -->
  <rect x="220" y="231" width="160" height="12" rx="1" fill="#0c1122" stroke="#2a3450" stroke-width="0.3"/>
  <rect x="246" y="234" width="108" height="6" rx="0.5" fill="#002244" stroke="#0066ff" stroke-width="0.5"/>
  <rect x="248" y="236" width="40" height="1" fill="#00ff88" filter="url(#glow)"/>
  <rect x="248" y="238" width="25" height="0.6" fill="#00aaff"/>
  
  <!-- 3U compute -->
  <rect x="220" y="245" width="160" height="32" rx="1" fill="#0c1122" stroke="#2a3450" stroke-width="0.3"/>
  <rect x="226" y="251" width="40" height="2" fill="#00ccff" filter="url(#glow)"/>
  <!-- Airflow vents -->
  <g stroke="#2a3450" stroke-width="0.3" fill="#080c18">
    <rect x="272" y="250" width="6" height="22" rx="0.5"/>
    <rect x="282" y="250" width="6" height="22" rx="0.5"/>
    <rect x="292" y="250" width="6" height="22" rx="0.5"/>
    <rect x="302" y="250" width="6" height="22" rx="0.5"/>
    <rect x="312" y="250" width="6" height="22" rx="0.5"/>
    <rect x="322" y="250" width="6" height="22" rx="0.5"/>
  </g>
  <circle cx="345" cy="260" r="8" fill="none" stroke="#3a4868" stroke-width="0.5"/>
  <circle cx="345" cy="260" r="6" fill="#1a2236" stroke="#2a3450" stroke-width="0.3"/>
  <circle cx="345" cy="260" r="1" fill="#0088ff" filter="url(#glow)"/>
  <circle cx="366" cy="260" r="8" fill="none" stroke="#3a4868" stroke-width="0.5"/>
  <circle cx="366" cy="260" r="6" fill="#1a2236" stroke="#2a3450" stroke-width="0.3"/>
  <circle cx="366" cy="260" r="1" fill="#0088ff" filter="url(#glow)"/>
  
  <!-- UPS/PDU -->
  <rect x="220" y="279" width="160" height="20" rx="1" fill="#12182a" stroke="#2a3450" stroke-width="0.3"/>
  <rect x="226" y="284" width="80" height="3" rx="0.5" fill="#2a3450"/>
  <rect x="226" y="289" width="50" height="2" rx="0.5" fill="#00aaff" opacity="0.6"/>
  <circle cx="316" cy="289" r="2" fill="#00ff88" filter="url(#glow)"/>
  <circle cx="326" cy="289" r="2" fill="#00ff88" filter="url(#glow)"/>
  <circle cx="336" cy="289" r="2" fill="#0088ff" filter="url(#glow)"/>
  
  <!-- More servers at bottom -->
  <rect x="220" y="301" width="160" height="12" rx="1" fill="#0c1122" stroke="#2a3450" stroke-width="0.3"/>
  <rect x="226" y="306" width="30" height="2" fill="#00aaff" filter="url(#glow)"/>
  
  <rect x="220" y="315" width="160" height="12" rx="1" fill="#0c1122" stroke="#2a3450" stroke-width="0.3"/>
  <rect x="226" y="320" width="25" height="2" fill="#0066ff" filter="url(#glow)"/>
  
  <rect x="220" y="329" width="160" height="8" rx="0.5" fill="#080c18" stroke="#1a2236" stroke-width="0.3"/>
  
  <!-- Top LED bar on rack -->
  <rect x="195" y="58" width="210" height="2" fill="#0088ff" opacity="0.5" filter="url(#glow)"/>
  
  <!-- Brand plate top-right -->
  <rect x="330" y="345" width="60" height="8" rx="1" fill="#E8500A" opacity="0.15"/>
</g>

<!-- Side rack (left, perspective) -->
<g opacity="0.45">
  <rect x="70" y="80" width="90" height="270" rx="3" fill="#14192c" stroke="#2a3450" stroke-width="0.5"/>
  <rect x="75" y="86" width="80" height="258" rx="2" fill="#080c18"/>
  <g fill="#0c1228">
    <rect x="78" y="92" width="74" height="8" rx="0.5"/><rect x="78" y="104" width="74" height="8" rx="0.5"/>
    <rect x="78" y="116" width="74" height="12" rx="0.5"/><rect x="78" y="132" width="74" height="12" rx="0.5"/>
    <rect x="78" y="148" width="74" height="20" rx="0.5"/><rect x="78" y="172" width="74" height="8" rx="0.5"/>
    <rect x="78" y="184" width="74" height="12" rx="0.5"/><rect x="78" y="200" width="74" height="12" rx="0.5"/>
    <rect x="78" y="216" width="74" height="8" rx="0.5"/><rect x="78" y="228" width="74" height="20" rx="0.5"/>
    <rect x="78" y="252" width="74" height="8" rx="0.5"/><rect x="78" y="264" width="74" height="12" rx="0.5"/>
    <rect x="78" y="280" width="74" height="12" rx="0.5"/><rect x="78" y="296" width="74" height="8" rx="0.5"/>
    <rect x="78" y="308" width="74" height="8" rx="0.5"/><rect x="78" y="320" width="74" height="20" rx="0.5"/>
  </g>
  <rect x="78" y="92" width="74" height="1" fill="#0088ff" opacity="0.8"/>
  <rect x="78" y="148" width="74" height="1" fill="#00ccff" opacity="0.8"/>
  <rect x="78" y="228" width="74" height="1" fill="#0066ff" opacity="0.8"/>
  <circle cx="148" cy="96" r="1" fill="#00ff88"/>
  <circle cx="148" cy="152" r="1" fill="#0088ff"/>
</g>

<!-- Side rack (right, perspective) -->
<g opacity="0.45">
  <rect x="440" y="80" width="90" height="270" rx="3" fill="#14192c" stroke="#2a3450" stroke-width="0.5"/>
  <rect x="445" y="86" width="80" height="258" rx="2" fill="#080c18"/>
  <g fill="#0c1228">
    <rect x="448" y="92" width="74" height="8" rx="0.5"/><rect x="448" y="104" width="74" height="12" rx="0.5"/>
    <rect x="448" y="120" width="74" height="12" rx="0.5"/><rect x="448" y="136" width="74" height="20" rx="0.5"/>
    <rect x="448" y="160" width="74" height="8" rx="0.5"/><rect x="448" y="172" width="74" height="8" rx="0.5"/>
    <rect x="448" y="184" width="74" height="20" rx="0.5"/><rect x="448" y="208" width="74" height="12" rx="0.5"/>
    <rect x="448" y="224" width="74" height="12" rx="0.5"/><rect x="448" y="240" width="74" height="8" rx="0.5"/>
    <rect x="448" y="252" width="74" height="20" rx="0.5"/><rect x="448" y="276" width="74" height="8" rx="0.5"/>
    <rect x="448" y="288" width="74" height="12" rx="0.5"/><rect x="448" y="304" width="74" height="8" rx="0.5"/>
    <rect x="448" y="316" width="74" height="8" rx="0.5"/><rect x="448" y="328" width="74" height="12" rx="0.5"/>
  </g>
  <rect x="448" y="92" width="74" height="1" fill="#00aaff" opacity="0.8"/>
  <rect x="448" y="136" width="74" height="1" fill="#0088ff" opacity="0.8"/>
  <rect x="448" y="252" width="74" height="1" fill="#00ccff" opacity="0.8"/>
  <circle cx="518" cy="96" r="1" fill="#00ff88"/>
  <circle cx="518" cy="140" r="1" fill="#0088ff"/>
</g>
</svg>
