<svg xmlns="http://www.w3.org/2000/svg" viewBox="0 0 600 400" width="600" height="400">
<defs>
<linearGradient id="bg" x1="0%" y1="0%" x2="100%" y2="100%"><stop offset="0%" stop-color="#0f1525"/><stop offset="100%" stop-color="#0a0e1a"/></linearGradient>
<linearGradient id="rail" x1="0%" y1="0%" x2="0%" y2="100%"><stop offset="0%" stop-color="#5a6a8a"/><stop offset="50%" stop-color="#3a4868"/><stop offset="100%" stop-color="#2a3550"/></linearGradient>
<linearGradient id="terminal" x1="0%" y1="0%" x2="0%" y2="100%"><stop offset="0%" stop-color="#B8B5A8"/><stop offset="50%" stop-color="#8A8778"/><stop offset="100%" stop-color="#5A5848"/></linearGradient>
<linearGradient id="relay" x1="0%" y1="0%" x2="0%" y2="100%"><stop offset="0%" stop-color="#E8E0D0"/><stop offset="100%" stop-color="#9A9280"/></linearGradient>
<linearGradient id="breaker" x1="0%" y1="0%" x2="0%" y2="100%"><stop offset="0%" stop-color="#3a4868"/><stop offset="100%" stop-color="#1a2236"/></linearGradient>
<filter id="glow"><feGaussianBlur stdDeviation="1.5"/></filter>
<filter id="bigGlow"><feGaussianBlur stdDeviation="15"/></filter>
</defs>
<rect width="600" height="400" fill="url(#bg)"/>

<!-- Ambient glow -->
<ellipse cx="300" cy="200" rx="280" ry="160" fill="#0088ff" opacity="0.05" filter="url(#bigGlow)"/>

<!-- Back panel (gray metal background of cabinet) -->
<rect x="40" y="40" width="520" height="320" rx="4" fill="#1a2236" stroke="#2a3450" stroke-width="0.5"/>
<rect x="48" y="48" width="504" height="304" rx="2" fill="#141a2e"/>
<!-- Subtle gray texture hints -->
<g stroke="#1a2236" stroke-width="0.5" opacity="0.3">
  <line x1="48" y1="120" x2="552" y2="120"/>
  <line x1="48" y1="200" x2="552" y2="200"/>
  <line x1="48" y1="280" x2="552" y2="280"/>
</g>

<!-- ══════ Top DIN rail with terminal blocks ══════ -->
<g>
  <!-- DIN rail (35mm profile, side view top-hat shape) -->
  <rect x="70" y="85" width="460" height="4" fill="url(#rail)" stroke="#2a3550" stroke-width="0.3"/>
  <rect x="70" y="89" width="460" height="14" fill="url(#rail)" stroke="#2a3550" stroke-width="0.3"/>
  <rect x="70" y="103" width="460" height="4" fill="url(#rail)" stroke="#2a3550" stroke-width="0.3"/>
  <!-- Mounting screws -->
  <circle cx="85" cy="96" r="2" fill="#2a3550" stroke="#5a6a8a" stroke-width="0.3"/>
  <circle cx="515" cy="96" r="2" fill="#2a3550" stroke="#5a6a8a" stroke-width="0.3"/>
  
  <!-- Terminal blocks (Phoenix Contact CLIPLINE style — beige/tan) -->
  <g>
    <!-- Single-level terminals in a row -->
    <g>
      <rect x="85" y="78" width="6" height="45" rx="0.5" fill="url(#terminal)" stroke="#5A5848" stroke-width="0.3"/>
      <!-- Screw top -->
      <circle cx="88" cy="82" r="1.5" fill="#3a3a3a"/>
      <!-- Wire hole -->
      <rect x="86" y="118" width="4" height="3" fill="#1a1a1a"/>
    </g>
    <g><rect x="93" y="78" width="6" height="45" rx="0.5" fill="url(#terminal)" stroke="#5A5848" stroke-width="0.3"/><circle cx="96" cy="82" r="1.5" fill="#3a3a3a"/><rect x="94" y="118" width="4" height="3" fill="#1a1a1a"/></g>
    <g><rect x="101" y="78" width="6" height="45" rx="0.5" fill="url(#terminal)" stroke="#5A5848" stroke-width="0.3"/><circle cx="104" cy="82" r="1.5" fill="#3a3a3a"/><rect x="102" y="118" width="4" height="3" fill="#1a1a1a"/></g>
    <g><rect x="109" y="78" width="6" height="45" rx="0.5" fill="url(#terminal)" stroke="#5A5848" stroke-width="0.3"/><circle cx="112" cy="82" r="1.5" fill="#3a3a3a"/><rect x="110" y="118" width="4" height="3" fill="#1a1a1a"/></g>
    <g><rect x="117" y="78" width="6" height="45" rx="0.5" fill="url(#terminal)" stroke="#5A5848" stroke-width="0.3"/><circle cx="120" cy="82" r="1.5" fill="#3a3a3a"/><rect x="118" y="118" width="4" height="3" fill="#1a1a1a"/></g>
    <g><rect x="125" y="78" width="6" height="45" rx="0.5" fill="url(#terminal)" stroke="#5A5848" stroke-width="0.3"/><circle cx="128" cy="82" r="1.5" fill="#3a3a3a"/><rect x="126" y="118" width="4" height="3" fill="#1a1a1a"/></g>
    <g><rect x="133" y="78" width="6" height="45" rx="0.5" fill="url(#terminal)" stroke="#5A5848" stroke-width="0.3"/><circle cx="136" cy="82" r="1.5" fill="#3a3a3a"/><rect x="134" y="118" width="4" height="3" fill="#1a1a1a"/></g>
    <g><rect x="141" y="78" width="6" height="45" rx="0.5" fill="url(#terminal)" stroke="#5A5848" stroke-width="0.3"/><circle cx="144" cy="82" r="1.5" fill="#3a3a3a"/><rect x="142" y="118" width="4" height="3" fill="#1a1a1a"/></g>
    
    <!-- Blue ground terminal (standard PE green-yellow or blue for N) -->
    <g><rect x="149" y="78" width="6" height="45" rx="0.5" fill="#1a5cb8" stroke="#0a3578" stroke-width="0.3"/><circle cx="152" cy="82" r="1.5" fill="#3a3a3a"/><rect x="150" y="118" width="4" height="3" fill="#1a1a1a"/></g>
    <g><rect x="157" y="78" width="6" height="45" rx="0.5" fill="#1a5cb8" stroke="#0a3578" stroke-width="0.3"/><circle cx="160" cy="82" r="1.5" fill="#3a3a3a"/><rect x="158" y="118" width="4" height="3" fill="#1a1a1a"/></g>
    
    <!-- Green-yellow PE terminals (striped) -->
    <g><rect x="165" y="78" width="6" height="45" rx="0.5" fill="#f5d020" stroke="#8a7010" stroke-width="0.3"/>
       <rect x="165" y="82" width="6" height="3" fill="#2a8a3a"/>
       <rect x="165" y="92" width="6" height="3" fill="#2a8a3a"/>
       <rect x="165" y="102" width="6" height="3" fill="#2a8a3a"/>
       <rect x="165" y="112" width="6" height="3" fill="#2a8a3a"/>
       <circle cx="168" cy="82" r="1.2" fill="#3a3a3a"/></g>
    <g><rect x="173" y="78" width="6" height="45" rx="0.5" fill="#f5d020" stroke="#8a7010" stroke-width="0.3"/>
       <rect x="173" y="82" width="6" height="3" fill="#2a8a3a"/>
       <rect x="173" y="92" width="6" height="3" fill="#2a8a3a"/>
       <rect x="173" y="102" width="6" height="3" fill="#2a8a3a"/>
       <rect x="173" y="112" width="6" height="3" fill="#2a8a3a"/>
       <circle cx="176" cy="82" r="1.2" fill="#3a3a3a"/></g>
    
    <!-- More beige terminals -->
    <g><rect x="181" y="78" width="6" height="45" rx="0.5" fill="url(#terminal)" stroke="#5A5848" stroke-width="0.3"/><circle cx="184" cy="82" r="1.5" fill="#3a3a3a"/><rect x="182" y="118" width="4" height="3" fill="#1a1a1a"/></g>
    <g><rect x="189" y="78" width="6" height="45" rx="0.5" fill="url(#terminal)" stroke="#5A5848" stroke-width="0.3"/><circle cx="192" cy="82" r="1.5" fill="#3a3a3a"/><rect x="190" y="118" width="4" height="3" fill="#1a1a1a"/></g>
    <g><rect x="197" y="78" width="6" height="45" rx="0.5" fill="url(#terminal)" stroke="#5A5848" stroke-width="0.3"/><circle cx="200" cy="82" r="1.5" fill="#3a3a3a"/><rect x="198" y="118" width="4" height="3" fill="#1a1a1a"/></g>
    <g><rect x="205" y="78" width="6" height="45" rx="0.5" fill="url(#terminal)" stroke="#5A5848" stroke-width="0.3"/><circle cx="208" cy="82" r="1.5" fill="#3a3a3a"/><rect x="206" y="118" width="4" height="3" fill="#1a1a1a"/></g>
    <g><rect x="213" y="78" width="6" height="45" rx="0.5" fill="url(#terminal)" stroke="#5A5848" stroke-width="0.3"/><circle cx="216" cy="82" r="1.5" fill="#3a3a3a"/><rect x="214" y="118" width="4" height="3" fill="#1a1a1a"/></g>
    
    <!-- End bracket -->
    <rect x="221" y="82" width="4" height="38" rx="0.5" fill="#8a8878" stroke="#5a5848" stroke-width="0.3"/>
  </g>

  <!-- Middle section — power supply (black/gray box) -->
  <g>
    <rect x="255" y="65" width="70" height="58" rx="2" fill="#0f1525" stroke="#2a3450" stroke-width="0.5"/>
    <rect x="258" y="68" width="64" height="52" rx="1" fill="#080c18"/>
    <!-- Display -->
    <rect x="264" y="74" width="52" height="14" rx="0.5" fill="#001528" stroke="#0066aa" stroke-width="0.3"/>
    <text x="290" y="83" font-family="monospace" font-size="7" text-anchor="middle" fill="#00ccff" filter="url(#glow)">24.0V</text>
    <!-- Status LEDs -->
    <circle cx="266" cy="98" r="2" fill="#00ff88" filter="url(#glow)"/>
    <text x="272" y="100" font-family="monospace" font-size="4" fill="#5a6a8a">ON</text>
    <circle cx="286" cy="98" r="2" fill="#00aaff" filter="url(#glow)"/>
    <text x="292" y="100" font-family="monospace" font-size="4" fill="#5a6a8a">OK</text>
    <circle cx="305" cy="98" r="2" fill="#ffaa00" filter="url(#glow)"/>
    <text x="311" y="100" font-family="monospace" font-size="4" fill="#5a6a8a">BT</text>
    <!-- Brand strip -->
    <rect x="264" y="110" width="20" height="4" rx="0.5" fill="#E8500A" opacity="0.8"/>
    <rect x="288" y="110" width="30" height="4" rx="0.5" fill="#3a4868" opacity="0.6"/>
    <!-- Terminal block on PSU -->
    <g>
      <rect x="258" y="120" width="64" height="3" fill="#2a3550"/>
      <circle cx="265" cy="121" r="1" fill="#1a1a1a"/>
      <circle cx="275" cy="121" r="1" fill="#1a1a1a"/>
      <circle cx="285" cy="121" r="1" fill="#1a1a1a"/>
      <circle cx="295" cy="121" r="1" fill="#1a1a1a"/>
      <circle cx="305" cy="121" r="1" fill="#1a1a1a"/>
      <circle cx="315" cy="121" r="1" fill="#1a1a1a"/>
    </g>
  </g>

  <!-- Right section — industrial relays (transparent-ish white/gray boxes) -->
  <g>
    <!-- Relay 1 -->
    <rect x="340" y="70" width="22" height="50" rx="1" fill="url(#relay)" stroke="#7a7868" stroke-width="0.4" opacity="0.92"/>
    <!-- Relay window -->
    <rect x="343" y="76" width="16" height="22" rx="0.5" fill="#0a0e1a" stroke="#3a3a2a" stroke-width="0.2"/>
    <!-- Internal coil -->
    <rect x="346" y="80" width="4" height="14" fill="#E8500A" opacity="0.7"/>
    <rect x="352" y="80" width="4" height="14" fill="#2a3550"/>
    <!-- Status LED -->
    <circle cx="351" cy="104" r="1.5" fill="#00ff88" filter="url(#glow)"/>
    <!-- Terminal connections bottom -->
    <rect x="342" y="118" width="18" height="3" fill="#2a3550"/>
    <circle cx="346" cy="119.5" r="0.8" fill="#1a1a1a"/>
    <circle cx="351" cy="119.5" r="0.8" fill="#1a1a1a"/>
    <circle cx="356" cy="119.5" r="0.8" fill="#1a1a1a"/>
    
    <!-- Relay 2 -->
    <rect x="364" y="70" width="22" height="50" rx="1" fill="url(#relay)" stroke="#7a7868" stroke-width="0.4" opacity="0.92"/>
    <rect x="367" y="76" width="16" height="22" rx="0.5" fill="#0a0e1a" stroke="#3a3a2a" stroke-width="0.2"/>
    <rect x="370" y="80" width="4" height="14" fill="#E8500A" opacity="0.7"/>
    <rect x="376" y="80" width="4" height="14" fill="#2a3550"/>
    <circle cx="375" cy="104" r="1.5" fill="#00ff88" filter="url(#glow)"/>
    <rect x="366" y="118" width="18" height="3" fill="#2a3550"/>
    <circle cx="370" cy="119.5" r="0.8" fill="#1a1a1a"/>
    <circle cx="375" cy="119.5" r="0.8" fill="#1a1a1a"/>
    <circle cx="380" cy="119.5" r="0.8" fill="#1a1a1a"/>
    
    <!-- Relay 3 -->
    <rect x="388" y="70" width="22" height="50" rx="1" fill="url(#relay)" stroke="#7a7868" stroke-width="0.4" opacity="0.92"/>
    <rect x="391" y="76" width="16" height="22" rx="0.5" fill="#0a0e1a" stroke="#3a3a2a" stroke-width="0.2"/>
    <rect x="394" y="80" width="4" height="14" fill="#E8500A" opacity="0.7"/>
    <rect x="400" y="80" width="4" height="14" fill="#2a3550"/>
    <circle cx="399" cy="104" r="1.5" fill="#00ff88" filter="url(#glow)"/>
    <rect x="390" y="118" width="18" height="3" fill="#2a3550"/>
    <circle cx="394" cy="119.5" r="0.8" fill="#1a1a1a"/>
    <circle cx="399" cy="119.5" r="0.8" fill="#1a1a1a"/>
    <circle cx="404" cy="119.5" r="0.8" fill="#1a1a1a"/>
    
    <!-- Relay 4 -->
    <rect x="412" y="70" width="22" height="50" rx="1" fill="url(#relay)" stroke="#7a7868" stroke-width="0.4" opacity="0.92"/>
    <rect x="415" y="76" width="16" height="22" rx="0.5" fill="#0a0e1a" stroke="#3a3a2a" stroke-width="0.2"/>
    <rect x="418" y="80" width="4" height="14" fill="#E8500A" opacity="0.7"/>
    <rect x="424" y="80" width="4" height="14" fill="#2a3550"/>
    <circle cx="423" cy="104" r="1.5" fill="#ffaa00" filter="url(#glow)"/>
    <rect x="414" y="118" width="18" height="3" fill="#2a3550"/>
    <circle cx="418" cy="119.5" r="0.8" fill="#1a1a1a"/>
    <circle cx="423" cy="119.5" r="0.8" fill="#1a1a1a"/>
    <circle cx="428" cy="119.5" r="0.8" fill="#1a1a1a"/>
    
    <!-- Relay 5 -->
    <rect x="436" y="70" width="22" height="50" rx="1" fill="url(#relay)" stroke="#7a7868" stroke-width="0.4" opacity="0.92"/>
    <rect x="439" y="76" width="16" height="22" rx="0.5" fill="#0a0e1a" stroke="#3a3a2a" stroke-width="0.2"/>
    <rect x="442" y="80" width="4" height="14" fill="#E8500A" opacity="0.7"/>
    <rect x="448" y="80" width="4" height="14" fill="#2a3550"/>
    <circle cx="447" cy="104" r="1.5" fill="#00ff88" filter="url(#glow)"/>
    <rect x="438" y="118" width="18" height="3" fill="#2a3550"/>
    <circle cx="442" cy="119.5" r="0.8" fill="#1a1a1a"/>
    <circle cx="447" cy="119.5" r="0.8" fill="#1a1a1a"/>
    <circle cx="452" cy="119.5" r="0.8" fill="#1a1a1a"/>
  </g>
</g>

<!-- ══════ Bottom DIN rail with circuit breakers ══════ -->
<g>
  <rect x="70" y="220" width="460" height="4" fill="url(#rail)" stroke="#2a3550" stroke-width="0.3"/>
  <rect x="70" y="224" width="460" height="14" fill="url(#rail)" stroke="#2a3550" stroke-width="0.3"/>
  <rect x="70" y="238" width="460" height="4" fill="url(#rail)" stroke="#2a3550" stroke-width="0.3"/>
  <circle cx="85" cy="231" r="2" fill="#2a3550" stroke="#5a6a8a" stroke-width="0.3"/>
  <circle cx="515" cy="231" r="2" fill="#2a3550" stroke="#5a6a8a" stroke-width="0.3"/>
  
  <!-- Circuit breakers (Legrand style — dark gray with switch) -->
  <g>
    <!-- 1P breaker -->
    <rect x="95" y="195" width="18" height="70" rx="1" fill="url(#breaker)" stroke="#4a5878" stroke-width="0.4"/>
    <!-- Lever/switch (ON position — up) -->
    <rect x="101" y="210" width="6" height="12" rx="0.5" fill="#E8500A"/>
    <circle cx="104" cy="211" r="0.8" fill="#fff"/>
    <!-- Label panel -->
    <rect x="97" y="225" width="14" height="8" rx="0.3" fill="#f5f0e5"/>
    <text x="104" y="231" font-family="monospace" font-size="5" text-anchor="middle" fill="#2a2a2a">C16</text>
    <!-- Screw terminal top -->
    <circle cx="104" cy="200" r="1.2" fill="#1a1a1a"/>
    <circle cx="104" cy="261" r="1.2" fill="#1a1a1a"/>
    
    <!-- 3P breaker (wider) -->
    <rect x="120" y="195" width="50" height="70" rx="1" fill="url(#breaker)" stroke="#4a5878" stroke-width="0.4"/>
    <rect x="132" y="210" width="26" height="12" rx="0.5" fill="#E8500A"/>
    <circle cx="145" cy="211" r="0.8" fill="#fff"/>
    <rect x="123" y="225" width="44" height="8" rx="0.3" fill="#f5f0e5"/>
    <text x="145" y="231" font-family="monospace" font-size="5" text-anchor="middle" fill="#2a2a2a">C25 3P</text>
    <!-- 3 sets of terminals -->
    <circle cx="128" cy="200" r="1.2" fill="#1a1a1a"/>
    <circle cx="145" cy="200" r="1.2" fill="#1a1a1a"/>
    <circle cx="162" cy="200" r="1.2" fill="#1a1a1a"/>
    <circle cx="128" cy="261" r="1.2" fill="#1a1a1a"/>
    <circle cx="145" cy="261" r="1.2" fill="#1a1a1a"/>
    <circle cx="162" cy="261" r="1.2" fill="#1a1a1a"/>
    
    <!-- 1P breakers -->
    <rect x="176" y="195" width="18" height="70" rx="1" fill="url(#breaker)" stroke="#4a5878" stroke-width="0.4"/>
    <rect x="182" y="210" width="6" height="12" rx="0.5" fill="#E8500A"/>
    <rect x="178" y="225" width="14" height="8" rx="0.3" fill="#f5f0e5"/>
    <text x="185" y="231" font-family="monospace" font-size="5" text-anchor="middle" fill="#2a2a2a">C10</text>
    <circle cx="185" cy="200" r="1.2" fill="#1a1a1a"/>
    <circle cx="185" cy="261" r="1.2" fill="#1a1a1a"/>
    
    <rect x="197" y="195" width="18" height="70" rx="1" fill="url(#breaker)" stroke="#4a5878" stroke-width="0.4"/>
    <rect x="203" y="210" width="6" height="12" rx="0.5" fill="#E8500A"/>
    <rect x="199" y="225" width="14" height="8" rx="0.3" fill="#f5f0e5"/>
    <text x="206" y="231" font-family="monospace" font-size="5" text-anchor="middle" fill="#2a2a2a">C10</text>
    <circle cx="206" cy="200" r="1.2" fill="#1a1a1a"/>
    <circle cx="206" cy="261" r="1.2" fill="#1a1a1a"/>
    
    <!-- RCD breaker (wider, different color) -->
    <rect x="218" y="195" width="36" height="70" rx="1" fill="#1a2236" stroke="#3a4868" stroke-width="0.4"/>
    <rect x="225" y="210" width="22" height="12" rx="0.5" fill="#2aaa5a"/>
    <circle cx="236" cy="211" r="0.8" fill="#fff"/>
    <rect x="221" y="225" width="30" height="8" rx="0.3" fill="#f5f0e5"/>
    <text x="236" y="231" font-family="monospace" font-size="4" text-anchor="middle" fill="#2a2a2a">RCD 30mA</text>
    <!-- Test button -->
    <circle cx="236" cy="244" r="2" fill="#E8500A"/>
    <text x="236" y="251" font-family="monospace" font-size="3" text-anchor="middle" fill="#f5f0e5">T</text>
    <circle cx="225" cy="200" r="1.2" fill="#1a1a1a"/>
    <circle cx="236" cy="200" r="1.2" fill="#1a1a1a"/>
    <circle cx="247" cy="200" r="1.2" fill="#1a1a1a"/>
    <circle cx="225" cy="261" r="1.2" fill="#1a1a1a"/>
    <circle cx="236" cy="261" r="1.2" fill="#1a1a1a"/>
    <circle cx="247" cy="261" r="1.2" fill="#1a1a1a"/>
    
    <!-- More 1P breakers -->
    <rect x="257" y="195" width="18" height="70" rx="1" fill="url(#breaker)" stroke="#4a5878" stroke-width="0.4"/>
    <rect x="263" y="210" width="6" height="12" rx="0.5" fill="#E8500A"/>
    <rect x="259" y="225" width="14" height="8" rx="0.3" fill="#f5f0e5"/>
    <text x="266" y="231" font-family="monospace" font-size="5" text-anchor="middle" fill="#2a2a2a">C16</text>
    <circle cx="266" cy="200" r="1.2" fill="#1a1a1a"/>
    <circle cx="266" cy="261" r="1.2" fill="#1a1a1a"/>
    
    <rect x="278" y="195" width="18" height="70" rx="1" fill="url(#breaker)" stroke="#4a5878" stroke-width="0.4"/>
    <rect x="284" y="210" width="6" height="12" rx="0.5" fill="#E8500A"/>
    <rect x="280" y="225" width="14" height="8" rx="0.3" fill="#f5f0e5"/>
    <text x="287" y="231" font-family="monospace" font-size="5" text-anchor="middle" fill="#2a2a2a">C16</text>
    <circle cx="287" cy="200" r="1.2" fill="#1a1a1a"/>
    <circle cx="287" cy="261" r="1.2" fill="#1a1a1a"/>
    
    <!-- Contactor (gray block) -->
    <rect x="305" y="180" width="60" height="85" rx="1.5" fill="#2a3450" stroke="#4a5878" stroke-width="0.5"/>
    <rect x="310" y="185" width="50" height="40" rx="1" fill="#0f1525" stroke="#2a3450" stroke-width="0.3"/>
    <text x="335" y="205" font-family="sans-serif" font-size="10" text-anchor="middle" fill="#8a95b0" font-weight="bold">LC1</text>
    <text x="335" y="218" font-family="monospace" font-size="6" text-anchor="middle" fill="#5a6a8a">25A · 3P</text>
    <!-- Contactor indicator -->
    <circle cx="317" cy="233" r="2" fill="#00ff88" filter="url(#glow)"/>
    <rect x="325" y="231" width="30" height="4" rx="0.3" fill="#1a2236"/>
    <text x="340" y="234" font-family="monospace" font-size="3" text-anchor="middle" fill="#5a6a8a">AUTO</text>
    <!-- Terminal rows -->
    <g>
      <rect x="307" y="240" width="56" height="4" fill="#4a5878"/>
      <circle cx="315" cy="242" r="1" fill="#1a1a1a"/>
      <circle cx="325" cy="242" r="1" fill="#1a1a1a"/>
      <circle cx="335" cy="242" r="1" fill="#1a1a1a"/>
      <circle cx="345" cy="242" r="1" fill="#1a1a1a"/>
      <circle cx="355" cy="242" r="1" fill="#1a1a1a"/>
      
      <rect x="307" y="255" width="56" height="4" fill="#4a5878"/>
      <circle cx="315" cy="257" r="1" fill="#1a1a1a"/>
      <circle cx="325" cy="257" r="1" fill="#1a1a1a"/>
      <circle cx="335" cy="257" r="1" fill="#1a1a1a"/>
      <circle cx="345" cy="257" r="1" fill="#1a1a1a"/>
      <circle cx="355" cy="257" r="1" fill="#1a1a1a"/>
    </g>
    
    <!-- More breakers right -->
    <rect x="375" y="195" width="18" height="70" rx="1" fill="url(#breaker)" stroke="#4a5878" stroke-width="0.4"/>
    <rect x="381" y="210" width="6" height="12" rx="0.5" fill="#E8500A"/>
    <rect x="377" y="225" width="14" height="8" rx="0.3" fill="#f5f0e5"/>
    <text x="384" y="231" font-family="monospace" font-size="5" text-anchor="middle" fill="#2a2a2a">C20</text>
    <circle cx="384" cy="200" r="1.2" fill="#1a1a1a"/>
    <circle cx="384" cy="261" r="1.2" fill="#1a1a1a"/>
    
    <rect x="396" y="195" width="18" height="70" rx="1" fill="url(#breaker)" stroke="#4a5878" stroke-width="0.4"/>
    <rect x="402" y="210" width="6" height="12" rx="0.5" fill="#E8500A"/>
    <rect x="398" y="225" width="14" height="8" rx="0.3" fill="#f5f0e5"/>
    <text x="405" y="231" font-family="monospace" font-size="5" text-anchor="middle" fill="#2a2a2a">C20</text>
    <circle cx="405" cy="200" r="1.2" fill="#1a1a1a"/>
    <circle cx="405" cy="261" r="1.2" fill="#1a1a1a"/>
    
    <rect x="417" y="195" width="18" height="70" rx="1" fill="url(#breaker)" stroke="#4a5878" stroke-width="0.4"/>
    <rect x="423" y="210" width="6" height="12" rx="0.5" fill="#E8500A"/>
    <rect x="419" y="225" width="14" height="8" rx="0.3" fill="#f5f0e5"/>
    <text x="426" y="231" font-family="monospace" font-size="5" text-anchor="middle" fill="#2a2a2a">C32</text>
    <circle cx="426" cy="200" r="1.2" fill="#1a1a1a"/>
    <circle cx="426" cy="261" r="1.2" fill="#1a1a1a"/>
    
    <rect x="438" y="195" width="18" height="70" rx="1" fill="url(#breaker)" stroke="#4a5878" stroke-width="0.4"/>
    <rect x="444" y="210" width="6" height="12" rx="0.5" fill="#E8500A"/>
    <rect x="440" y="225" width="14" height="8" rx="0.3" fill="#f5f0e5"/>
    <text x="447" y="231" font-family="monospace" font-size="5" text-anchor="middle" fill="#2a2a2a">C32</text>
    <circle cx="447" cy="200" r="1.2" fill="#1a1a1a"/>
    <circle cx="447" cy="261" r="1.2" fill="#1a1a1a"/>
    
    <rect x="459" y="195" width="18" height="70" rx="1" fill="url(#breaker)" stroke="#4a5878" stroke-width="0.4"/>
    <rect x="465" y="210" width="6" height="12" rx="0.5" fill="#E8500A"/>
    <rect x="461" y="225" width="14" height="8" rx="0.3" fill="#f5f0e5"/>
    <text x="468" y="231" font-family="monospace" font-size="5" text-anchor="middle" fill="#2a2a2a">C40</text>
    <circle cx="468" cy="200" r="1.2" fill="#1a1a1a"/>
    <circle cx="468" cy="261" r="1.2" fill="#1a1a1a"/>
    
    <rect x="480" y="195" width="18" height="70" rx="1" fill="url(#breaker)" stroke="#4a5878" stroke-width="0.4"/>
    <rect x="486" y="210" width="6" height="12" rx="0.5" fill="#E8500A"/>
    <rect x="482" y="225" width="14" height="8" rx="0.3" fill="#f5f0e5"/>
    <text x="489" y="231" font-family="monospace" font-size="5" text-anchor="middle" fill="#2a2a2a">C50</text>
    <circle cx="489" cy="200" r="1.2" fill="#1a1a1a"/>
    <circle cx="489" cy="261" r="1.2" fill="#1a1a1a"/>
    
    <!-- End bracket -->
    <rect x="503" y="225" width="4" height="38" rx="0.5" fill="#8a8878" stroke="#5a5848" stroke-width="0.3"/>
  </g>
</g>

<!-- Colored wires -->
<g stroke-width="1.5" fill="none" opacity="0.75">
  <path d="M 87 125 Q 90 150 93 175 Q 96 188 100 195" stroke="#0088ff"/>
  <path d="M 152 125 Q 152 150 152 185" stroke="#1a5cb8"/>
  <path d="M 168 125 Q 168 150 168 185" stroke="#2a8a3a"/>
  <path d="M 290 125 Q 292 155 295 185" stroke="#ff4400"/>
  <path d="M 351 125 Q 355 155 360 195" stroke="#ffaa00"/>
  <path d="M 399 125 Q 400 155 405 185" stroke="#1a1a1a" opacity="0.9"/>
  <path d="M 489 125 Q 490 155 495 185" stroke="#ff4400"/>
  <!-- Wire going bottom out -->
  <path d="M 105 265 L 105 330 Q 105 340 115 340 L 485 340 Q 495 340 495 330 L 495 265" stroke="#E8500A" stroke-width="2" opacity="0.4"/>
</g>

<!-- Label tags on wires (tiny rectangles) -->
<g fill="#f5f0e5" opacity="0.85">
  <rect x="83" y="148" width="8" height="5" rx="0.5"/>
  <rect x="148" y="148" width="8" height="5" rx="0.5"/>
  <rect x="286" y="153" width="8" height="5" rx="0.5"/>
  <rect x="347" y="153" width="8" height="5" rx="0.5"/>
</g>

<!-- Small title plate / cabinet label -->
<rect x="440" y="55" width="90" height="18" rx="1" fill="#151c30" stroke="#2a3450" stroke-width="0.5"/>
<text x="485" y="64" font-family="monospace" font-size="6" text-anchor="middle" fill="#E8500A" font-weight="bold">TERRATECH</text>
<text x="485" y="70" font-family="monospace" font-size="5" text-anchor="middle" fill="#5a6a8a">CONTROL PANEL</text>
</svg>
